<svg
    xmlns="http://www.w3.org/2000/svg"
    fill="none"
    viewBox="0 0 14 14"
    role="img"
    class="styles_icon_svg__qTi4M"
>
    <path
        class="ic-c-copy_outline_svg__ic_c_copy_outline"
        fill="#EE3425"
        d="M8.895 2.455A.455.455 0 0 0 8.44 2H3.842C3.38 2 3 2.41 3 2.91v5.942a.421.421 0 1 0 .842 0V2.909H8.44a.455.455 0 0 0 .455-.454Zm1.263 1.363H5.526c-.463 0-.842.41-.842.91v6.363c0 .5.38.909.842.909h4.632c.463 0 .842-.41.842-.91V4.728c0-.5-.379-.909-.842-.909Zm0 7.273H5.526V4.727h4.632v6.364Z"
    ></path>
</svg>